<?xml version="1.0" encoding="utf-8"?>
<!-- Generator: Adobe Illustrator 16.0.0, SVG Export Plug-In . SVG Version: 6.00 Build 0)  -->
<!DOCTYPE svg PUBLIC "-//W3C//DTD SVG 1.1//EN" "http://www.w3.org/Graphics/SVG/1.1/DTD/svg11.dtd">
<svg version="1.1" id="Layer_1" xmlns="http://www.w3.org/2000/svg" xmlns:xlink="http://www.w3.org/1999/xlink" x="0px" y="0px"
	 width="960px" height="560px" viewBox="0 0 960 560" enable-background="new 0 0 960 560" xml:space="preserve">
<polygon stroke="#000000" stroke-miterlimit="10" points="-724.334,90.447 -933.964,-78.013 -378.964,-78.013 -378.964,367.985 
	-933.964,367.985 -724.334,199.526 -678.844,162.966 -656.464,144.987 -678.844,127.006 "/>
<polygon stroke="#000000" stroke-miterlimit="10" points="710.551,401.77 842.551,509 758.551,509 710.551,470.84 523.541,322.16 
	478.051,286 523.541,249.84 710.551,101.161 758.551,63 842.551,63 710.551,170.23 568.051,286 "/>
<polygon stroke="#000000" stroke-miterlimit="10" points="733.047,401.77 865.047,509 781.047,509 733.047,470.84 546.037,322.16 
	500.547,286 546.037,249.84 733.047,101.161 781.047,63 865.047,63 733.047,170.23 590.547,286 "/>
<polygon stroke="#000000" stroke-miterlimit="10" points="748.797,401.77 880.797,509 796.797,509 748.797,470.84 561.787,322.16 
	516.297,286 561.787,249.84 748.797,101.161 796.797,63 880.797,63 748.797,170.23 606.297,286 "/>
<rect x="89.95" y="57" stroke="#000000" stroke-miterlimit="10" width="355.591" height="446"/>
<g>
	<g>
		<path fill="#FFFFFF" d="M407.97,261.43c-0.4-2.26-2.37-3.91-4.67-3.91H378c-2.62-10.31-6.72-20.2-12.16-29.34l17.89-17.89
			c1.63-1.63,1.85-4.19,0.53-6.08c-9.43-13.53-21.19-25.29-34.73-34.73c-1.88-1.32-4.44-1.09-6.07,0.54l-17.89,17.89
			c-9.15-5.44-19.03-9.54-29.35-12.16v-25.3c0-2.3-1.64-4.27-3.91-4.68c-16.25-2.86-32.88-2.86-49.13,0
			c-0.35,0.09-0.69,0.21-1.01,0.37c-13.42-4.7-28.29-2.78-40.07,5.19c-11.79,7.97-19.11,21.04-19.74,35.26
			c-1.12,0.12-2.22,0.31-3.32,0.52c-0.2,0.04-0.4,0.05-0.61,0.09c-1.34,0.28-2.65,0.62-3.95,1.03c-0.41,0.12-0.8,0.29-1.2,0.42
			c-0.88,0.3-1.75,0.6-2.6,0.96c-0.49,0.2-0.94,0.44-1.42,0.66c-0.74,0.34-1.49,0.68-2.21,1.06c-0.49,0.26-0.97,0.56-1.45,0.84
			c-0.66,0.39-1.33,0.78-1.98,1.2c-0.48,0.32-0.94,0.66-1.4,0.99c-0.62,0.45-1.23,0.89-1.82,1.36c-0.45,0.36-0.89,0.74-1.32,1.13
			c-0.56,0.48-1.12,0.98-1.66,1.5c-0.42,0.41-0.82,0.82-1.23,1.25c-0.51,0.54-1.01,1.08-1.5,1.64c-0.38,0.45-0.75,0.9-1.11,1.36
			c-0.46,0.58-0.91,1.18-1.34,1.79c-0.34,0.48-0.67,0.95-0.99,1.45c-0.41,0.62-0.79,1.27-1.17,1.92c-0.29,0.5-0.58,1.01-0.86,1.52
			c-0.35,0.68-0.67,1.37-0.99,2.06c-0.24,0.53-0.49,1.05-0.71,1.59c-0.29,0.72-0.55,1.46-0.81,2.2c-0.18,0.54-0.38,1.07-0.54,1.61
			c-0.24,0.79-0.43,1.6-0.62,2.4c-0.13,0.52-0.27,1.04-0.38,1.58c-0.18,0.9-0.3,1.82-0.42,2.75c-0.06,0.45-0.15,0.89-0.2,1.35
			c-0.13,1.39-0.21,2.8-0.21,4.23c-0.02,5.72,1.13,11.39,3.38,16.66c-0.3,0.18-0.56,0.41-0.85,0.6c-0.77,0.5-1.51,1.05-2.25,1.6
			c-1.71,1.26-3.33,2.63-4.85,4.1c-0.18,0.16-0.37,0.32-0.54,0.49c-0.89,0.89-1.71,1.83-2.53,2.79c-0.27,0.32-0.54,0.63-0.81,0.96
			c-0.79,0.98-1.54,1.98-2.25,3.01c-0.2,0.29-0.38,0.59-0.57,0.88c-2.05,3.16-3.72,6.54-4.96,10.1c-0.3,0.84-0.59,1.67-0.84,2.53
			c-0.23,0.8-0.43,1.59-0.62,2.39c-0.26,1.1-0.46,2.22-0.64,3.35c-0.1,0.65-0.23,1.29-0.3,1.94c-0.07,0.569-0.11,1.14-0.16,1.72
			c-0.01,0.09-0.07,0.17-0.08,0.271c-0.11,1.189-0.11,2.369-0.11,3.56c0.02,13.65,5.9,26.63,16.15,35.64
			c-2.1,3.44-3.73,7.141-4.84,11.011c-0.06,0.22-0.13,0.43-0.19,0.649c-0.48,1.78-0.86,3.59-1.13,5.41
			c-0.05,0.31-0.07,0.61-0.11,0.91c-0.25,1.899-0.38,3.8-0.39,5.71c-0.1,21,14.4,39.26,34.88,43.93c0.13,0.53,0.32,1.03,0.47,1.561
			c0.15,0.5,0.3,1.01,0.46,1.51c0.37,1.15,0.79,2.27,1.24,3.38c0.14,0.36,0.27,0.72,0.42,1.07c1.92,4.45,4.45,8.62,7.53,12.37
			c0.18,0.239,0.38,0.46,0.58,0.68c0.82,0.97,1.68,1.92,2.57,2.82c0.29,0.31,0.59,0.6,0.89,0.89c0.83,0.81,1.69,1.59,2.57,2.34
			c0.36,0.3,0.7,0.601,1.07,0.9c0.89,0.729,1.82,1.41,2.77,2.08c0.36,0.25,0.71,0.52,1.07,0.76c1.3,0.86,2.62,1.67,3.98,2.42
			c0.25,0.14,0.51,0.25,0.76,0.37c1.13,0.59,2.27,1.149,3.43,1.66c0.58,0.25,1.18,0.47,1.77,0.699c0.88,0.341,1.75,0.681,2.65,0.971
			c0.65,0.21,1.3,0.41,1.96,0.6c0.9,0.25,1.8,0.48,2.71,0.69c0.65,0.16,1.3,0.3,1.96,0.42c1.02,0.2,2.06,0.34,3.09,0.479
			c0.57,0.07,1.12,0.16,1.69,0.21c1.62,0.15,3.26,0.25,4.91,0.25c6.86,0,13.65-1.35,19.98-3.989c0.71,0.96,1.75,1.609,2.92,1.83
			c16.25,2.88,32.88,2.88,49.13,0c2.27-0.41,3.91-2.381,3.91-4.681v-25.29c10.32-2.63,20.2-6.729,29.35-12.17l17.9,17.9
			c1.62,1.63,4.18,1.85,6.07,0.529c13.53-9.439,25.29-21.189,34.72-34.729c1.33-1.88,1.1-4.45-0.53-6.07l-17.89-17.899
			c5.44-9.141,9.54-19.03,12.16-29.34h25.3c2.3,0,4.27-1.65,4.67-3.91C410.86,294.31,410.86,277.69,407.97,261.43z M220.28,418.9
			c-1.38,0-2.74-0.08-4.08-0.21c-0.49-0.051-0.97-0.131-1.45-0.19c-0.84-0.11-1.69-0.23-2.52-0.39c-0.57-0.11-1.13-0.25-1.69-0.38
			c-0.73-0.171-1.45-0.351-2.17-0.551c-0.58-0.18-1.14-0.359-1.71-0.55c-0.69-0.229-1.37-0.479-2.04-0.75
			c-0.55-0.21-1.09-0.43-1.63-0.67c-0.69-0.31-1.37-0.65-2.05-0.99c-0.47-0.239-0.95-0.479-1.41-0.739
			c-0.79-0.44-1.56-0.91-2.31-1.4c-0.32-0.21-0.65-0.39-0.96-0.61c-2.2-1.489-4.25-3.189-6.14-5.069
			c-0.06-0.061-0.11-0.131-0.17-0.19c-0.87-0.87-1.7-1.78-2.49-2.729c-0.14-0.171-0.27-0.351-0.41-0.521
			c-0.69-0.86-1.35-1.74-1.98-2.64c-0.16-0.24-0.31-0.471-0.47-0.71c-0.56-0.87-1.1-1.75-1.61-2.66c-0.16-0.29-0.32-0.57-0.47-0.86
			c-0.47-0.88-0.9-1.79-1.31-2.7c-0.14-0.33-0.29-0.659-0.43-0.989c-0.37-0.9-0.7-1.841-1.01-2.771c-0.12-0.36-0.25-0.71-0.36-1.07
			c-0.3-0.979-0.54-1.97-0.77-2.97c-0.07-0.33-0.17-0.649-0.23-0.979c-2.41-11.931,0.39-24.32,7.7-34.061
			c1.56-2.1,1.14-5.069-0.96-6.64c-2.09-1.57-5.06-1.15-6.63,0.939c-6.81,9.021-10.48,20.021-10.45,31.33
			c0,0.94,0.09,1.86,0.15,2.78c-14.34-4.94-23.95-18.46-23.88-33.63c0-1.96,0.16-3.9,0.47-5.84c0.04-0.2,0.11-0.391,0.15-0.59
			c1-5.561,3.33-10.79,6.78-15.25c0.04-0.04,0.05-0.091,0.07-0.131c4.49-5.8,10.65-10.069,17.66-12.22c2.5-0.77,3.91-3.43,3.14-5.93
			c-0.77-2.51-3.43-3.92-5.93-3.15c-7.35,2.261-14.01,6.351-19.33,11.9c-7.94-7.19-12.48-17.4-12.5-28.12
			c0.01-1.59,0.12-3.18,0.33-4.76c0.06-0.5,0.14-1,0.23-1.5c0.18-1.08,0.41-2.14,0.68-3.19c0.13-0.53,0.25-1.07,0.41-1.59
			c0.4-1.31,0.86-2.58,1.39-3.83c0.31-0.73,0.67-1.43,1.03-2.13c0.29-0.59,0.59-1.17,0.92-1.74c0.44-0.77,0.88-1.52,1.37-2.26
			c0.28-0.42,0.59-0.81,0.89-1.22c0.92-1.28,1.92-2.49,3-3.64c0.41-0.45,0.83-0.9,1.27-1.33c0.58-0.56,1.18-1.11,1.8-1.64
			c0.68-0.57,1.39-1.12,2.11-1.66c0.57-0.42,1.14-0.84,1.74-1.24c1.1-0.72,2.24-1.38,3.41-1.98c5.37-2.8,11.34-4.26,17.39-4.26
			c2.62,0,4.74-2.12,4.74-4.75c0-2.61-2.12-4.74-4.74-4.74c-5.65,0.01-11.25,1.04-16.53,3.03c-1.64-3.97-2.47-8.23-2.46-12.52
			c0-15.04,10.11-28.2,24.63-32.09c14.53-3.89,29.86,2.45,37.38,15.48c0.85,1.47,2.41,2.37,4.11,2.37c1.7,0,3.26-0.91,4.11-2.38
			c0.85-1.47,0.85-3.28,0-4.75c-6.81-11.68-18.72-19.48-32.15-21.03c1.1-19.22,17.29-34.08,36.54-33.52
			c19.24,0.55,34.56,16.32,34.55,35.57v29.33l-20.61,28.85l-17.43-7.64c0.01-0.24,0.07-0.46,0.07-0.7
			c0.06-6.95-4.84-12.95-11.66-14.27c-6.82-1.32-13.61,2.43-16.13,8.9c-2.52,6.48-0.05,13.83,5.87,17.47
			c5.91,3.64,13.58,2.54,18.23-2.63l17.24,7.57c1.19,0.52,2.48,0.79,3.78,0.79c3.07,0,5.96-1.48,7.75-3.97L263,234.36v37.4h-38.85
			c-2.31-6.53-9-10.46-15.83-9.28c-6.84,1.17-11.83,7.1-11.83,14.03c0,6.931,4.99,12.86,11.83,14.03
			c6.83,1.18,13.52-2.74,15.83-9.28H263v18.98h-10.37c-2.31-6.54-9-10.46-15.83-9.28c-6.84,1.16-11.83,7.09-11.83,14.021
			c0,6.939,4.99,12.869,11.83,14.039c6.83,1.181,13.52-2.75,15.83-9.289H263v18.989h-38.83c-4.52,0.011-8.41,3.2-9.31,7.63
			l-3.35,16.75c-6.57,2-10.75,8.431-9.91,15.25c0.83,6.82,6.45,12.051,13.32,12.4c6.86,0.35,12.98-4.29,14.5-10.99
			s-1.99-13.52-8.32-16.18l3.07-15.37H263v37.97C262.97,399.76,243.86,418.87,220.28,418.9z M215.53,238.54
			c0,2.62-2.12,4.74-4.74,4.74s-4.75-2.12-4.75-4.74s2.13-4.75,4.75-4.75S215.53,235.92,215.53,238.54z M215.53,276.51
			c0,2.62-2.12,4.75-4.74,4.75s-4.75-2.13-4.75-4.75c0-2.62,2.13-4.75,4.75-4.75C213.41,271.77,215.53,273.89,215.53,276.51z
			 M244.01,304.98c0,2.63-2.12,4.75-4.74,4.75s-4.75-2.12-4.75-4.75c0-2.61,2.13-4.74,4.75-4.74S244.01,302.37,244.01,304.98z
			 M220.28,366.69c0,2.619-2.12,4.739-4.75,4.739c-2.61,0-4.74-2.12-4.74-4.739c0-2.62,2.13-4.75,4.74-4.75
			C218.16,361.95,220.28,364.07,220.28,366.69z M399.26,304.98h-25.01c-2.23,0-4.16,1.56-4.63,3.729
			c-2.58,11.82-7.25,23.08-13.79,33.25c-1.21,1.88-0.94,4.34,0.64,5.92l17.7,17.7c-7.6,10.21-16.64,19.25-26.85,26.84l-17.7-17.7
			c-1.58-1.569-4.04-1.84-5.92-0.64c-10.17,6.54-21.43,11.21-33.24,13.8c-2.18,0.47-3.73,2.4-3.73,4.63v25.01
			c-11.64,1.671-23.44,1.771-35.1,0.311c13.12-9.83,20.84-25.26,20.86-41.65v-23.97c34.76-2.45,61.71-31.36,61.71-66.21
			c0-34.84-26.95-63.75-61.71-66.2v-31.1c0-13.59-6.14-26.45-16.72-34.99c10.32-0.96,20.71-0.7,30.96,0.77v25.01
			c0,2.23,1.55,4.16,3.73,4.64c11.81,2.58,23.07,7.25,33.24,13.79c1.88,1.21,4.35,0.94,5.92-0.64l17.7-17.7
			c10.21,7.59,19.25,16.63,26.85,26.85l-17.7,17.69c-1.58,1.58-1.85,4.05-0.64,5.93c6.53,10.17,11.21,21.43,13.78,33.24
			c0.48,2.18,2.41,3.73,4.64,3.73h25.01C401.1,279.6,401.1,292.4,399.26,304.98z M300.97,286c-0.03-16.5-12.15-30.48-28.48-32.84
			v-23.88C302,231.73,324.7,256.39,324.7,286c0,29.61-22.7,54.27-52.21,56.72v-23.87C288.82,316.48,300.94,302.5,300.97,286z
			 M272.49,309.25v-46.5c11.05,2.25,18.99,11.97,18.99,23.25C291.48,297.28,283.54,307,272.49,309.25z"/>
		<path stroke="#000000" stroke-miterlimit="10" d="M399.26,304.98h-25.01c-2.23,0-4.16,1.56-4.63,3.729
			c-2.58,11.82-7.25,23.08-13.79,33.25c-1.21,1.88-0.94,4.34,0.64,5.92l17.7,17.7c-7.6,10.21-16.64,19.25-26.85,26.84l-17.7-17.7
			c-1.58-1.569-4.04-1.84-5.92-0.64c-10.17,6.54-21.43,11.21-33.24,13.8c-2.18,0.47-3.73,2.4-3.73,4.63v25.01
			c-11.64,1.671-23.44,1.771-35.1,0.311c13.12-9.83,20.84-25.26,20.86-41.65v-23.97c34.76-2.45,61.71-31.36,61.71-66.21
			c0-34.84-26.95-63.75-61.71-66.2v-31.1c0-13.59-6.14-26.45-16.72-34.99c10.32-0.96,20.71-0.7,30.96,0.77v25.01
			c0,2.23,1.55,4.16,3.73,4.64c11.81,2.58,23.07,7.25,33.24,13.79c1.88,1.21,4.35,0.94,5.92-0.64l17.7-17.7
			c10.21,7.59,19.25,16.63,26.85,26.85l-17.7,17.69c-1.58,1.58-1.85,4.05-0.64,5.93c6.53,10.17,11.21,21.43,13.78,33.24
			c0.48,2.18,2.41,3.73,4.64,3.73h25.01C401.1,279.6,401.1,292.4,399.26,304.98z"/>
	</g>
</g>
</svg>
