<?xml version="1.0" encoding="utf-8"?>
<!-- Generator: Adobe Illustrator 16.0.0, SVG Export Plug-In . SVG Version: 6.00 Build 0)  -->
<!DOCTYPE svg PUBLIC "-//W3C//DTD SVG 1.1//EN" "http://www.w3.org/Graphics/SVG/1.1/DTD/svg11.dtd">
<svg version="1.1" id="Layer_1" xmlns="http://www.w3.org/2000/svg" xmlns:xlink="http://www.w3.org/1999/xlink" x="0px" y="0px"
	 width="300px" height="122px" viewBox="0 0 300 122" enable-background="new 0 0 300 122" xml:space="preserve">
<g>
	<g>
		<path fill-rule="evenodd" clip-rule="evenodd" fill="#FFFFFF" d="M1,123C1,82.333,1,41.667,1,1c100,0,200,0,300,0
			c0,40.667,0,81.333,0,122C201,123,101,123,1,123z M33.142,99.417c0.3-0.139,0.7-0.197,0.885-0.429
			c1.258-1.563,2.471-3.164,3.698-4.753c-1.752,0.05-3.825-0.492-5.199,0.254c-5.1,2.769-10.088,5.791-14.844,9.111
			c-1.221,0.853-1.435,3.146-2.351,5.353c10.956,0.078,20.452-1.395,28.903-6.573c13.433-8.232,25.131-18.537,35.099-30.781
			c5.048-6.201,11.1-7.038,17.238-2.084c7.346,5.93,15.618,8.999,24.979,8.175c7.112-0.626,14.425-1.211,21.151-3.366
			c7.336-2.352,14.656-3.418,22.223-4.313c23.622-2.791,47.156-6.326,70.773-9.151c9.721-1.163,19.568-1.253,29.358-1.831
			c-5.087-0.629-10.239-1.104-15.276-0.549c-24.793,2.738-49.553,5.761-74.33,8.64c-1.381,0.16-3.814,0.362-4.048-0.184
			c-1.401-3.288-3.235-1.693-5.276-1.016c-3.377,1.121-6.835,2.021-10.292,2.879c-1.512,0.376-3.206,0.145-4.644,0.665
			c-4.403,1.594-8.722,3.419-13.073,5.153c-0.201-0.524-0.402-1.049-0.604-1.574c2.663-1.833,5.325-3.666,7.988-5.499
			c-0.261-0.435-0.522-0.87-0.783-1.306c-8.434,4.934-16.533,10.445-26.994,9.991c-10.431-0.454-17.992-6.134-25.34-11.935
			c10.829-6.406,21.536-12.739,32.242-19.073c-0.19-0.381-0.381-0.761-0.572-1.142c-12.591,7.152-25.182,14.306-37.773,21.458
			c-0.367-0.537-0.734-1.073-1.102-1.61c10.311-10.819,20.625-21.636,30.929-32.461c3.672-3.857,8.083-5.899,13.413-6.786
			c4.366-0.728,8.574-2.575,12.738-4.216c0.85-0.336,1.19-1.965,1.766-2.998c-1.101-0.429-2.186-1.159-3.307-1.218
			c-1.736-0.092-3.52,0.54-5.243,0.395c-4.187-0.353-7.999,0.132-10.748,3.716c-2.994,3.903-7.063,4.827-11.761,5.04
			c-15.46,0.7-30.906,1.708-46.359,2.562c-1.047,0.058-2.11-0.188-3.645-0.341c0.979-1.077,1.557-1.714,2.135-2.35
			c-0.254-0.294-0.508-0.587-0.762-0.88c-1.644,1.331-3.288,2.662-4.931,3.994c0.279,0.451,0.559,0.903,0.838,1.355
			c19.114-0.998,38.229-1.996,57.289-2.99c-12.055,13.212-23.754,26.105-35.581,38.882c-1.155,1.248-3.039,1.889-4.671,2.616
			c-3.772,1.681-7.597,3.242-11.401,4.853c0.181,0.442,0.363,0.886,0.544,1.328c3.4-1.251,6.8-2.503,10.199-3.754
			c0.212,0.434,0.424,0.866,0.636,1.299c-15.844,15.425-30.334,32.94-55.928,35.292c4.065-2.832,7.248-5.049,10.43-7.267
			C32.219,99.806,32.68,99.611,33.142,99.417z"/>
		<path fill-rule="evenodd" clip-rule="evenodd" d="M31.757,99.999c-3.182,2.218-6.364,4.435-10.43,7.267
			c25.594-2.352,40.084-19.867,55.928-35.292c-0.212-0.433-0.424-0.865-0.636-1.299c-3.399,1.251-6.799,2.503-10.199,3.754
			c-0.181-0.442-0.363-0.886-0.544-1.328c3.804-1.61,7.629-3.172,11.401-4.853c1.632-0.728,3.516-1.368,4.671-2.616
			c11.826-12.776,23.525-25.67,35.581-38.882c-19.06,0.994-38.174,1.992-57.289,2.99c-0.279-0.452-0.559-0.904-0.838-1.355
			c1.644-1.332,3.287-2.663,4.931-3.994c0.254,0.293,0.508,0.586,0.762,0.88c-0.578,0.636-1.156,1.272-2.135,2.35
			c1.535,0.152,2.598,0.398,3.645,0.341c15.453-0.854,30.899-1.861,46.359-2.562c4.699-0.213,8.767-1.137,11.761-5.04
			c2.749-3.584,6.561-4.068,10.748-3.716c1.724,0.146,3.507-0.486,5.243-0.395c1.121,0.059,2.206,0.789,3.307,1.218
			c-0.575,1.033-0.916,2.662-1.766,2.998c-4.164,1.641-8.372,3.488-12.738,4.216c-5.33,0.887-9.74,2.929-13.413,6.786
			c-10.304,10.825-20.619,21.642-30.929,32.461c0.367,0.537,0.734,1.073,1.102,1.61c12.591-7.152,25.182-14.306,37.773-21.458
			c0.19,0.381,0.381,0.761,0.572,1.142c-10.706,6.334-21.413,12.667-32.242,19.073c7.349,5.801,14.909,11.48,25.34,11.935
			c10.461,0.454,18.561-5.058,26.994-9.991c0.261,0.436,0.522,0.871,0.783,1.306c-2.663,1.833-5.325,3.666-7.988,5.499
			c0.201,0.525,0.402,1.05,0.604,1.574c4.352-1.734,8.67-3.56,13.073-5.153c1.438-0.521,3.132-0.289,4.644-0.665
			c3.457-0.858,6.915-1.758,10.292-2.879c2.041-0.678,3.875-2.272,5.276,1.016c0.233,0.546,2.667,0.344,4.048,0.184
			c24.777-2.879,49.537-5.901,74.33-8.64c5.037-0.556,10.189-0.08,15.276,0.549c-9.79,0.578-19.638,0.668-29.358,1.831
			c-23.617,2.825-47.151,6.36-70.773,9.151c-7.566,0.895-14.887,1.961-22.223,4.313c-6.726,2.155-14.039,2.74-21.151,3.366
			c-9.361,0.824-17.632-2.245-24.979-8.175c-6.138-4.954-12.19-4.117-17.238,2.084c-9.967,12.244-21.666,22.549-35.099,30.781
			c-8.451,5.179-17.947,6.651-28.903,6.573c0.916-2.207,1.13-4.5,2.351-5.353c4.755-3.32,9.744-6.343,14.844-9.111
			c1.374-0.746,3.447-0.204,5.199-0.254c-1.228,1.589-2.44,3.189-3.698,4.753c-0.186,0.231-0.585,0.29-0.883,0.428
			c0.945-1.181,1.888-2.359,2.831-3.539c-0.3-0.332-0.6-0.663-0.899-0.995c-5.061,2.938-10.122,5.877-15.182,8.815
			c0.158,0.302,0.316,0.604,0.474,0.906C24.165,103.069,27.96,101.534,31.757,99.999z M141.023,19.83
			c-7.721-3.451-12.521-2.019-17.025,4.907C130.32,22.915,135.672,21.372,141.023,19.83z"/>
		<path fill-rule="evenodd" clip-rule="evenodd" fill="#FFFFFF" d="M31.757,99.999c-3.796,1.535-7.592,3.07-11.389,4.604
			c-0.158-0.302-0.316-0.604-0.474-0.906c5.061-2.938,10.121-5.877,15.182-8.815c0.299,0.332,0.599,0.663,0.899,0.995
			c-0.943,1.18-1.886,2.358-2.831,3.539C32.68,99.611,32.219,99.806,31.757,99.999z"/>
		<path fill-rule="evenodd" clip-rule="evenodd" fill="#FFFFFF" d="M141.023,19.83c-5.351,1.542-10.703,3.085-17.025,4.907
			C128.502,17.812,133.302,16.379,141.023,19.83z"/>
	</g>
</g>
</svg>
